<?xml version="1.0"?>
<svg xmlns="http://www.w3.org/2000/svg" width="512" height="512" viewBox="0 0 128 128"><g><path d="M108.878.083H40.035A14.673,14.673,0,0,0,25.378,14.74V86.8H6.215a1.749,1.749,0,0,0-1.75,1.75v24.88a14.673,14.673,0,0,0,14.657,14.656H83.064a14.674,14.674,0,0,0,14.658-14.656V27.166h24.063a1.749,1.749,0,0,0,1.75-1.75V14.74A14.673,14.673,0,0,0,108.878.083Zm-35.31,124.5H19.122A11.169,11.169,0,0,1,7.965,113.427V90.3H68.407v23.13A14.84,14.84,0,0,0,73.568,124.583Zm20.654-11.156a11.158,11.158,0,0,1-22.315,0V88.547a1.749,1.749,0,0,0-1.75-1.75H28.878V14.74A11.17,11.17,0,0,1,40.035,3.583H99.383A14.844,14.844,0,0,0,94.222,14.74Zm25.813-89.761H97.722V14.74a11.157,11.157,0,1,1,22.313,0Z"/><path d="M85.972,10.083H37.128a1.75,1.75,0,0,0,0,3.5H85.972a1.75,1.75,0,0,0,0-3.5Z"/><path d="M78.25,21.922a1.75,1.75,0,0,0,0-3.5H44.85a1.75,1.75,0,0,0,0,3.5Z"/><path d="M85.972,26.762H37.128a1.75,1.75,0,0,0,0,3.5H85.972a1.75,1.75,0,0,0,0-3.5Z"/><path d="M78.25,38.6a1.75,1.75,0,0,0,0-3.5H44.85a1.75,1.75,0,1,0,0,3.5Z"/><path d="M85.972,43.439H37.128a1.75,1.75,0,0,0,0,3.5H85.972a1.75,1.75,0,0,0,0-3.5Z"/><path d="M78.25,55.279a1.75,1.75,0,0,0,0-3.5H44.85a1.75,1.75,0,0,0,0,3.5Z"/><path d="M85.972,60.118H37.128a1.75,1.75,0,0,0,0,3.5H85.972a1.75,1.75,0,0,0,0-3.5Z"/><path d="M78.25,71.958a1.75,1.75,0,0,0,0-3.5H44.85a1.75,1.75,0,1,0,0,3.5Z"/><path d="M85.972,76.8H37.128a1.75,1.75,0,0,0,0,3.5H85.972a1.75,1.75,0,1,0,0-3.5Z"/></g></svg>
